<?xml version="1.0" standalone="no"?><!DOCTYPE svg PUBLIC "-//W3C//DTD SVG 1.1//EN" "http://www.w3.org/Graphics/SVG/1.1/DTD/svg11.dtd"><svg t="1602336194294" class="icon" viewBox="0 0 1024 1024" version="1.1" xmlns="http://www.w3.org/2000/svg" p-id="5014" xmlns:xlink="http://www.w3.org/1999/xlink" width="128" height="128"><defs><style type="text/css"></style></defs><path d="M490.148831 620.809171c0-11.998265 9.670244-21.719674 21.786189-21.719674 12.029988 0 21.786189 9.870812 21.786189 21.719674l0 130.838907c0 11.998265-9.670244 21.723767-21.786189 21.723767-12.031011 0-21.786189-9.870812-21.786189-21.723767L490.148831 620.809171z" p-id="5015"></path><path d="M665.411507 454.780811 665.411507 221.056652c0-88.86391-72.290443-161.1564-161.155377-161.1564s-161.1564 72.29249-161.1564 161.1564l0 244.802472c-66.181305 50.828642-108.927875 130.726344-108.927875 220.437551 0 153.176658 124.626415 277.80205 277.827633 277.80205 153.198148 0 277.827633-124.625392 277.827633-277.80205C789.827121 589.766155 740.33901 504.595356 665.411507 454.780811zM375.775944 221.056652c0-70.845535 57.634652-128.477117 128.480186-128.477117 70.843488 0 128.480186 57.631582 128.480186 128.477117l0 215.042681c-36.529985-17.699104-77.493955-27.632337-120.735805-27.632337-49.468668 0-95.947236 13.009292-136.223544 35.763528L375.776967 221.056652zM511.999488 931.422512c-135.180795 0-245.148349-109.969601-245.148349-245.125837 0-135.182842 109.968577-245.153466 245.148349-245.153466s245.147326 109.970624 245.147326 245.153466C757.146814 821.452911 647.17926 931.422512 511.999488 931.422512z" p-id="5016"></path></svg>